<svg viewBox="0 0 64 64" xmlns="http://www.w3.org/2000/svg">
  <defs>
    <linearGradient id="iconGradient" x1="0%" y1="0%" x2="100%" y2="100%">
      <stop offset="0%" style="stop-color:#3B82F6;stop-opacity:1" />
      <stop offset="100%" style="stop-color:#1D4ED8;stop-opacity:1" />
    </linearGradient>
  </defs>
  
  <!-- Red de conexiones expandida para ocupar todo el espacio -->
  <g transform="translate(8, 8)">
    <!-- Nodos principales más grandes -->
    <circle cx="8" cy="8" r="4" fill="#3B82F6"/>
    <circle cx="40" cy="8" r="4" fill="#1D4ED8"/>
    <circle cx="48" cy="24" r="4" fill="#3B82F6"/>
    <circle cx="24" cy="40" r="4" fill="#1D4ED8"/>
    <circle cx="8" cy="24" r="4" fill="#3B82F6"/>
    <circle cx="24" cy="24" r="4" fill="#1D4ED8"/>
    <circle cx="40" cy="40" r="4" fill="#3B82F6"/>
    
    <!-- Conexiones principales -->
    <line x1="8" y1="8" x2="40" y2="8" stroke="url(#iconGradient)" stroke-width="3"/>
    <line x1="40" y1="8" x2="48" y2="24" stroke="url(#iconGradient)" stroke-width="3"/>
    <line x1="8" y1="24" x2="24" y2="40" stroke="url(#iconGradient)" stroke-width="3"/>
    <line x1="8" y1="8" x2="8" y2="24" stroke="url(#iconGradient)" stroke-width="3"/>
    <line x1="24" y1="24" x2="40" y2="8" stroke="url(#iconGradient)" stroke-width="2.5" opacity="0.8"/>
    <line x1="24" y1="24" x2="48" y2="24" stroke="url(#iconGradient)" stroke-width="2.5" opacity="0.8"/>
    <line x1="24" y1="24" x2="24" y2="40" stroke="url(#iconGradient)" stroke-width="2.5" opacity="0.8"/>
    <line x1="8" y1="24" x2="24" y2="24" stroke="url(#iconGradient)" stroke-width="2.5" opacity="0.8"/>
    <line x1="24" y1="40" x2="40" y2="40" stroke="url(#iconGradient)" stroke-width="2.5" opacity="0.7"/>
    <line x1="40" y1="40" x2="48" y2="24" stroke="url(#iconGradient)" stroke-width="2.5" opacity="0.7"/>
  </g>
</svg>